<svg width="25" height="24" viewBox="0 0 25 24" fill="none" xmlns="http://www.w3.org/2000/svg">
<path d="M21.71 3.53002C21.4173 3.23729 20.9427 3.23728 20.65 3.52998L12.931 11.248L5.2215 3.53663C4.92856 3.24362 4.45352 3.2437 4.16069 3.53681C3.8681 3.82968 3.86818 4.30424 4.16087 4.597L11.871 12.309L4.15497 20.025C3.86219 20.3178 3.86197 20.7924 4.15447 21.0855C4.44738 21.3789 4.92281 21.3791 5.21597 21.0859L12.931 13.369L20.657 21.094C20.9497 21.3867 21.4243 21.3867 21.717 21.094C22.0097 20.8013 22.0097 20.3267 21.717 20.034L13.993 12.309L21.7101 4.59005C22.0028 4.2973 22.0027 3.82273 21.71 3.53002Z" fill="#CED2DA"/>
</svg>
