<svg width="24" height="25" viewBox="0 0 24 25" fill="none" xmlns="http://www.w3.org/2000/svg">
<path d="M2.85742 4.40234H4.5416C5.29396 4.40234 5.67014 4.40234 5.95336 4.60665C6.23658 4.81096 6.35549 5.16768 6.59331 5.88113L7.18136 7.6453" stroke="#97A1AF" stroke-width="1.5" stroke-linecap="round"/>
<path d="M17.9922 18.4558H7.77685C7.6201 18.4558 7.54119 18.4558 7.48066 18.4494C7.33056 18.4326 7.18565 18.3846 7.05524 18.3084C6.92484 18.2322 6.81185 18.1296 6.72355 18.0071C6.63525 17.8845 6.5736 17.7449 6.54258 17.5971C6.51156 17.4493 6.51185 17.2966 6.54344 17.1489C6.5684 17.0533 6.59761 16.9588 6.631 16.8657C6.68721 16.6992 6.71424 16.616 6.74559 16.5414C6.89947 16.1729 7.15243 15.8541 7.47643 15.6206C7.80043 15.387 8.18279 15.2478 8.5811 15.2183C8.66109 15.2129 8.74865 15.2129 8.92377 15.2129H14.7492" stroke="#97A1AF" stroke-width="1.5" stroke-linecap="round" stroke-linejoin="round"/>
<path d="M14.4009 15.2114H11.1137C9.73001 15.2114 9.03818 15.2114 8.49769 14.8547C7.95612 14.498 7.68371 13.8624 7.13889 12.5911L6.95621 12.1652C6.08061 10.1221 5.64389 9.10278 6.12385 8.37311C6.60597 7.64453 7.71722 7.64453 9.93756 7.64453H15.6452C18.1314 7.64453 19.3735 7.64453 19.8426 8.45203C20.3107 9.25952 19.6945 10.3383 18.4611 12.496L18.1552 13.0332C17.5477 14.0958 17.2439 14.6277 16.7402 14.9196C16.2375 15.2114 15.6246 15.2114 14.4009 15.2114Z" stroke="#97A1AF" stroke-width="1.5" stroke-linecap="round"/>
<path d="M17.4501 22.2381C18.0471 22.2381 18.5311 21.7542 18.5311 21.1572C18.5311 20.5601 18.0471 20.0762 17.4501 20.0762C16.8531 20.0762 16.3691 20.5601 16.3691 21.1572C16.3691 21.7542 16.8531 22.2381 17.4501 22.2381Z" fill="#97A1AF"/>
<path d="M7.72161 22.2381C8.31862 22.2381 8.8026 21.7542 8.8026 21.1572C8.8026 20.5601 8.31862 20.0762 7.72161 20.0762C7.1246 20.0762 6.64062 20.5601 6.64062 21.1572C6.64062 21.7542 7.1246 22.2381 7.72161 22.2381Z" fill="#97A1AF"/>
</svg>
