<svg width="24" height="25" viewBox="0 0 24 25" fill="none" xmlns="http://www.w3.org/2000/svg">
<path d="M3.74133 11.9399C3.39339 11.9399 3.11133 12.222 3.11133 12.5699C3.11133 12.9179 3.39339 13.1999 3.74133 13.1999H9.2878L7.11643 15.4147C6.8522 15.6843 6.8522 16.1156 7.11643 16.3851C7.38815 16.6623 7.8345 16.6623 8.10623 16.3851L11.1603 13.27C11.5415 12.8812 11.5415 12.2587 11.1603 11.8699L8.10623 8.75475C7.8345 8.47758 7.38815 8.47758 7.11643 8.75475C6.8522 9.02426 6.8522 9.45564 7.11643 9.72515L9.2878 11.9399H3.74133Z" fill="#141C24"/>
<path d="M9.41797 20.8953C9.41797 20.5225 9.72018 20.2203 10.093 20.2203H19.065C19.3412 20.2203 19.565 19.9965 19.565 19.7203V5.42031C19.565 5.14417 19.3412 4.92031 19.065 4.92031H10.093C9.72018 4.92031 9.41797 4.6181 9.41797 4.24531C9.41797 3.87252 9.72018 3.57031 10.093 3.57031H18.8886C19.9931 3.57031 20.8886 4.46574 20.8886 5.57031V19.5703C20.8886 20.6749 19.9931 21.5703 18.8886 21.5703H10.093C9.72018 21.5703 9.41797 21.2681 9.41797 20.8953Z" fill="#141C24"/>
</svg>
